<svg xmlns="http://www.w3.org/2000/svg" xmlns:xlink="http://www.w3.org/1999/xlink" width="500" zoomAndPan="magnify" viewBox="0 0 375 374.999991" height="500" preserveAspectRatio="xMidYMid meet" version="1.0"><defs><clipPath id="8835a9058b"><path d="M 67.8125 93.058594 L 307.0625 93.058594 L 307.0625 282 L 67.8125 282 Z M 67.8125 93.058594 " clip-rule="nonzero"/></clipPath><clipPath id="838ee6778c"><path d="M 222.914062 162.105469 C 226.601562 162.800781 230.222656 163.679688 233.769531 164.730469 C 233.644531 166.078125 233.988281 167.367188 234.664062 168.433594 C 234.632812 168.382812 234.601562 168.332031 234.574219 168.28125 C 234.5625 168.261719 234.550781 168.242188 234.539062 168.226562 C 234.144531 167.539062 233.902344 166.804688 233.800781 166.066406 C 233.796875 166.039062 233.792969 166.011719 233.789062 165.984375 C 233.761719 165.75 233.75 165.515625 233.75 165.285156 C 233.75 163.257812 234.808594 161.28125 236.6875 160.1875 C 237.609375 159.65625 238.617188 159.40625 239.613281 159.40625 C 241.648438 159.40625 243.628906 160.460938 244.71875 162.351562 C 245.085938 162.984375 245.320312 163.652344 245.429688 164.332031 C 245.480469 164.644531 245.507812 164.960938 245.507812 165.273438 C 245.507812 166.425781 245.171875 167.554688 244.535156 168.519531 C 248.511719 170.152344 252.382812 172.015625 256.101562 174.097656 C 255.746094 174.769531 255.347656 175.417969 254.910156 176.042969 C 254.917969 176.03125 254.925781 176.019531 254.9375 176.007812 C 259.007812 170.183594 259.554688 162.285156 255.734375 155.820312 C 253.472656 151.988281 250.082031 149.257812 246.230469 147.804688 C 245.878906 147.6875 245.519531 147.582031 245.160156 147.488281 C 243.4375 146.976562 241.636719 146.714844 239.820312 146.714844 C 237.316406 146.710938 234.789062 147.21875 232.382812 148.269531 C 232.355469 148.28125 232.324219 148.292969 232.292969 148.308594 L 211.375 136.234375 L 189.953125 148.601562 L 172.183594 138.34375 L 210.101562 116.445312 L 271.636719 151.960938 L 271.636719 174.304688 L 210.078125 209.867188 L 148.527344 174.320312 C 148.527344 174.324219 148.523438 174.324219 148.523438 174.324219 L 105.152344 149.285156 C 105.390625 145.636719 104.519531 142.015625 102.683594 138.84375 C 99.644531 133.589844 94.378906 130.21875 88.464844 129.59375 C 80.183594 128.714844 72.273438 133.472656 69.171875 141.207031 C 67.105469 146.347656 67.339844 152.355469 70.324219 157.519531 C 71.296875 159.203125 72.496094 160.679688 73.859375 161.933594 C 73.859375 161.933594 73.859375 161.9375 73.859375 161.9375 C 79.050781 166.707031 86.5 168.144531 93.070312 165.667969 L 128.3125 186.027344 L 128.3125 188.390625 L 128.324219 188.417969 L 128.324219 234.703125 L 210.101562 281.929688 L 279.050781 242.128906 C 282.109375 243.910156 285.644531 244.785156 289.15625 244.65625 C 292.144531 244.546875 295.121094 243.71875 297.824219 242.15625 C 306.757812 237.015625 309.832031 225.578125 304.660156 216.640625 C 299.992188 208.535156 290.148438 205.261719 281.683594 208.578125 C 275.242188 211.097656 270.652344 216.996094 269.90625 223.992188 L 210.070312 258.539062 L 157.984375 228.480469 C 157.988281 228.480469 157.996094 228.480469 158 228.484375 L 148.539062 223.027344 L 148.539062 197.695312 L 199.980469 227.394531 L 210.109375 233.242188 L 280.652344 192.507812 L 291.851562 186.039062 L 291.851562 140.285156 C 274.234375 130.121094 256.625 119.945312 239.007812 109.761719 C 239.007812 109.761719 239.003906 109.765625 239.003906 109.765625 C 229.359375 104.195312 219.714844 98.621094 210.070312 93.058594 L 151.914062 126.644531 L 147.910156 124.324219 C 148.0625 120.78125 147.214844 117.273438 145.417969 114.164062 C 140.246094 105.214844 128.828125 102.171875 119.902344 107.328125 C 110.960938 112.488281 107.898438 123.898438 113.0625 132.84375 C 117.710938 140.886719 127.539062 144.273438 136.109375 140.878906 L 175.523438 163.628906 C 175.519531 163.632812 175.511719 163.632812 175.507812 163.632812 L 189.984375 171.976562 L 211.4375 159.605469 C 215.265625 161.808594 218.804688 164.238281 222.519531 166.566406 C 222.515625 166.507812 222.507812 166.453125 222.503906 166.394531 C 223.21875 175.746094 231.027344 183.109375 240.558594 183.109375 C 246.402344 183.109375 251.597656 180.339844 254.910156 176.042969 C 255.347656 175.417969 255.746094 174.769531 256.101562 174.097656 C 252.382812 172.015625 248.511719 170.152344 244.535156 168.519531 C 244.523438 168.535156 244.515625 168.550781 244.503906 168.566406 C 244.296875 168.875 244.058594 169.167969 243.789062 169.4375 C 243.785156 169.4375 243.785156 169.4375 243.785156 169.441406 C 243.570312 169.652344 243.339844 169.851562 243.089844 170.03125 C 243.089844 170.035156 243.085938 170.035156 243.085938 170.035156 C 242.800781 170.242188 242.496094 170.425781 242.179688 170.578125 C 241.6875 170.816406 241.164062 170.984375 240.621094 171.078125 C 240.613281 171.082031 240.601562 171.082031 240.589844 171.085938 C 240.429688 171.113281 240.265625 171.132812 240.101562 171.144531 C 240.097656 171.144531 240.097656 171.144531 240.097656 171.144531 C 239.941406 171.160156 239.785156 171.164062 239.628906 171.164062 C 239.53125 171.164062 239.4375 171.164062 239.339844 171.15625 C 238.472656 171.117188 237.660156 170.886719 236.941406 170.515625 C 236.007812 170.035156 235.226562 169.308594 234.667969 168.4375 C 234.667969 168.433594 234.667969 168.433594 234.667969 168.433594 C 233.988281 167.367188 233.644531 166.078125 233.769531 164.730469 C 230.222656 163.675781 226.601562 162.800781 222.914062 162.105469 Z M 91.722656 145.46875 C 92.074219 146.148438 92.285156 146.875 92.355469 147.609375 C 92.566406 149.808594 91.53125 152.058594 89.4375 153.265625 C 88.222656 153.964844 86.867188 154.191406 85.582031 153.988281 C 85.011719 153.898438 84.453125 153.722656 83.933594 153.46875 C 83.011719 153.019531 82.191406 152.324219 81.585938 151.402344 C 81.527344 151.308594 81.46875 151.214844 81.414062 151.121094 C 79.789062 148.308594 80.753906 144.71875 83.566406 143.085938 C 84.488281 142.554688 85.5 142.300781 86.496094 142.300781 C 87.15625 142.300781 87.816406 142.414062 88.4375 142.628906 C 89.640625 143.046875 90.710938 143.855469 91.445312 144.996094 C 91.546875 145.148438 91.636719 145.308594 91.71875 145.46875 Z M 135.105469 123.914062 C 135.039062 124.828125 134.761719 125.71875 134.292969 126.511719 C 133.933594 127.113281 133.472656 127.644531 132.933594 128.082031 C 132.699219 128.273438 132.449219 128.445312 132.179688 128.601562 C 131.253906 129.132812 130.246094 129.386719 129.25 129.386719 C 128.34375 129.386719 127.449219 129.175781 126.636719 128.777344 C 125.691406 128.308594 124.890625 127.59375 124.316406 126.714844 C 124.257812 126.625 124.203125 126.535156 124.148438 126.441406 C 123.613281 125.515625 123.359375 124.5 123.363281 123.5 C 123.363281 122.472656 123.632812 121.464844 124.144531 120.574219 C 124.660156 119.675781 125.40625 118.925781 126.304688 118.40625 C 126.339844 118.386719 126.378906 118.363281 126.414062 118.34375 C 128.023438 117.464844 129.867188 117.414062 131.449219 118.054688 C 132.433594 118.457031 133.285156 119.113281 133.917969 119.945312 C 134.066406 120.140625 134.207031 120.347656 134.332031 120.566406 C 134.808594 121.394531 135.0625 122.289062 135.109375 123.179688 C 135.117188 123.289062 135.121094 123.398438 135.117188 123.507812 C 135.117188 123.644531 135.113281 123.78125 135.105469 123.914062 Z M 285.042969 230.753906 C 281.855469 228.460938 281.777344 223.722656 284.921875 221.316406 C 287.621094 219.269531 291.414062 219.898438 293.316406 222.632812 C 295.160156 225.296875 294.496094 228.945312 291.867188 230.792969 C 289.820312 232.234375 287.074219 232.21875 285.042969 230.753906 Z M 222.453125 165.003906 C 222.453125 165.160156 222.453125 165.316406 222.457031 165.46875 C 222.453125 165.316406 222.453125 165.160156 222.453125 165.003906 Z M 222.457031 165.472656 C 222.460938 165.625 222.46875 165.78125 222.476562 165.933594 C 222.46875 165.78125 222.460938 165.625 222.457031 165.472656 Z M 222.476562 165.9375 C 222.484375 166.089844 222.492188 166.242188 222.503906 166.394531 C 222.492188 166.242188 222.484375 166.089844 222.476562 165.9375 Z M 222.476562 165.9375 " clip-rule="evenodd"/></clipPath></defs><g clip-path="url(#8835a9058b)"><g clip-path="url(#838ee6778c)"><path fill="#000000" d="M 67.8125 93.058594 L 67.8125 281.929688 L 307.0625 281.929688 L 307.0625 93.058594 Z M 67.8125 93.058594 " fill-opacity="1" fill-rule="nonzero"/></g></g></svg>